<svg width="32" height="33" viewBox="0 0 32 33" fill="none" xmlns="http://www.w3.org/2000/svg">
<rect x="0.5" y="1.03955" width="31" height="30.9702" rx="3.5" fill="white" stroke="#DDE0E5"/>
<path d="M16.1125 19.6504C16.387 18.8736 17.1279 18.3171 17.9987 18.3171C18.8695 18.3171 19.6104 18.8736 19.8849 19.6504H22.6654V20.9837H19.8849C19.6104 21.7605 18.8695 22.3171 17.9987 22.3171C17.1279 22.3171 16.387 21.7605 16.1125 20.9837H9.33203V19.6504H16.1125ZM12.1125 12.9837C12.3871 12.2069 13.1279 11.6504 13.9987 11.6504C14.8695 11.6504 15.6104 12.2069 15.8849 12.9837H22.6654V14.3171H15.8849C15.6104 15.0939 14.8695 15.6504 13.9987 15.6504C13.1279 15.6504 12.3871 15.0939 12.1125 14.3171H9.33203V12.9837H12.1125ZM13.9987 14.3171C14.3669 14.3171 14.6654 14.0186 14.6654 13.6504C14.6654 13.2822 14.3669 12.9837 13.9987 12.9837C13.6305 12.9837 13.332 13.2822 13.332 13.6504C13.332 14.0186 13.6305 14.3171 13.9987 14.3171ZM17.9987 20.9837C18.3669 20.9837 18.6654 20.6853 18.6654 20.3171C18.6654 19.9489 18.3669 19.6504 17.9987 19.6504C17.6305 19.6504 17.332 19.9489 17.332 20.3171C17.332 20.6853 17.6305 20.9837 17.9987 20.9837Z" fill="#5C6677"/>
</svg>
