<?xml version="1.0" encoding="utf-8"?>
<!-- Generator: Adobe Illustrator 19.0.0, SVG Export Plug-In . SVG Version: 6.00 Build 0)  -->
<svg version="1.1" id="Layer_1" xmlns="http://www.w3.org/2000/svg" xmlns:xlink="http://www.w3.org/1999/xlink" x="0px" y="0px"
	 viewBox="0 0 512 512" style="enable-background:new 0 0 512 512;" xml:space="preserve">
<g id="XMLID_1_">
	<path id="XMLID_6_" d="M497.1,155.5c-1.9,0-3.7,0-5.6,0.9L288.6,261.6l0,0c-8.4,5.6-14,14-14,24.2V498c0,7.4,6.5,13,14.9,13
		c2.8,0,4.7-0.9,6.5-1.9c0,0,0,0,0.9,0l199.2-106.1l0,0c9.3-5.6,15.8-14.9,15.8-25.1V168.5C512,161,505.5,155.5,497.1,155.5z
		 M482.2,98.7L274.6,5.6c0,0-12.1-5.6-18.6-5.6c-6.5,0-18.6,5.6-18.6,5.6L29.8,98.7c0,0-9.3,3.7-9.3,11.2s9.3,13,9.3,13L242,234.6
		c4.7,1.9,9.3,2.8,14,2.8c5.6,0,10.2-0.9,14.9-2.8l212.2-111.7c0,0,8.4-4.7,8.4-13C491.5,102.4,482.2,98.7,482.2,98.7L482.2,98.7z
		 M223.4,261.6L20.5,156.4c-1.9-0.9-3.7-0.9-5.6-0.9c-8.4,0-14.9,5.6-14.9,13v210.4c0,11.2,6.5,20.5,15.8,25.1l0,0L215,510.1
		c1.9,0.9,4.7,1.9,7.4,1.9c8.4,0,14.9-5.6,14.9-13V286.7C237.4,276.5,231.8,267.2,223.4,261.6z"/>
</g>
</svg>
