<svg width="24" height="24" viewBox="0 0 24 24" fill="none" xmlns="http://www.w3.org/2000/svg">
<path fill-rule="evenodd" clip-rule="evenodd" d="M16.2425 11.3937L15.2035 15.55H6.39823L4.52233 7.95005H10.8H14.0226C13.9761 7.48637 14.001 7.01374 14.1012 6.55005H10.8H4.17676L3.75277 4.8323L3.6214 4.30005H3.07317H0V5.70005H2.52494L5.1704 16.4178L5.30177 16.95H5.85H15.75H16.2965L16.4291 16.4198L17.5587 11.9015C17.1062 11.8051 16.662 11.637 16.2425 11.3937Z" fill="white"/>
<path d="M5.65032 20.0748C5.65032 19.343 6.24354 18.7498 6.97532 18.7498C7.7071 18.7498 8.30032 19.343 8.30032 20.0748C8.30032 20.8066 7.7071 21.3998 6.97532 21.3998C6.24354 21.3998 5.65032 20.8066 5.65032 20.0748Z" stroke="white" stroke-width="1.4"/>
<rect x="13.3002" y="18.7498" width="2.65" height="2.65" rx="1.325" stroke="white" stroke-width="1.4"/>
<path fill-rule="evenodd" clip-rule="evenodd" d="M23.1158 10.4829C21.4691 13.0343 18.0645 13.7644 15.5131 12.1177C14.3109 11.34 13.5133 10.1774 13.18 8.8957C12.803 7.45533 13.0094 5.86418 13.8823 4.51507C15.529 1.96367 18.9335 1.23357 21.4849 2.88027C24.0363 4.52698 24.7664 7.93149 23.1197 10.4829H23.1158ZM19.3002 10.5V8.29986H21.5V6.69986H19.3002V4.5H17.7002V6.69986H15.5V8.29986H17.7002V10.5H19.3002Z" fill="white"/>
</svg>
