<svg width="32" height="32" viewBox="0 0 32 32" fill="none" xmlns="http://www.w3.org/2000/svg">
<path fill-rule="evenodd" clip-rule="evenodd" d="M17 11.833V10.833H15V11.833V11.8521V11.8711V11.8901V11.909V11.9279V11.9468V11.9657V11.9845V12.0033V12.0221V12.0408V12.0595V12.0782V12.0968V12.1154V12.134V12.1525V12.1711V12.1895V12.208V12.2264V12.2448V12.2632V12.2815V12.2998V12.3181V12.3364V12.3546V12.3728V12.3909V12.409V12.4271V12.4452V12.4633V12.4813V12.4993V12.5172V12.5352V12.5531V12.5709V12.5888V12.6066V12.6244V12.6422V12.6599V12.6776V12.6953V12.713V12.7306V12.7482V12.7658V12.7833V12.8009V12.8184V12.8358V12.8533V12.8707V12.8881V12.9055V12.9228V12.9401V12.9574V12.9747V12.992V13.0092V13.0264V13.0436V13.0607V13.0778V13.0949V13.112V13.1291V13.1461V13.1631V13.1801V13.1971V13.214V13.2309V13.2478V13.2647V13.2815V13.2984V13.3152V13.3319V13.3487V13.3654V13.3822V13.3988V13.4155V13.4322V13.4488V13.4654V13.482V13.4986V13.5151V13.5316V13.5481V13.5646V13.5811V13.5975V13.614V13.6304V13.6468V13.6631V13.6795V13.6958V13.7121V13.7284V13.7447V13.7609V13.7772V13.7934V13.8096V13.8257V13.8419V13.858V13.8742V13.8903V13.9064V13.9224V13.9385V13.9545V13.9705V13.9865V14.0025V14.0185V14.0344V14.0504V14.0663V14.0822V14.0981V14.114V14.1298V14.1457V14.1615V14.1773V14.1931V14.2089V14.2246V14.2404V14.2561V14.2718V14.2875V14.3032V14.3189V14.3345V14.3502V14.3658V14.3814V14.397V14.4126V14.4282V14.4438V14.4593V14.4749V14.4904V14.5059V14.5214V14.5369V14.5524V14.5678V14.5833V14.5987V14.6141V14.6296V14.645V14.6604V14.6757V14.6911V14.7065V14.7218V14.7371V14.7525V14.7678V14.7831V14.7984V14.8137V14.8289V14.8442V14.8595V14.8747V14.8899V14.9052V14.9204V14.9356V14.9508V14.966V14.9812V14.9963V14.9997H14.9966H14.9815H14.9663H14.9511H14.9359H14.9207H14.9055H14.8903H14.875H14.8598H14.8445H14.8293H14.814H14.7987H14.7834H14.7681H14.7528H14.7375H14.7221H14.7068H14.6914H14.6761H14.6607H14.6453H14.6299H14.6145H14.599H14.5836H14.5682H14.5527H14.5372H14.5217H14.5062H14.4907H14.4752H14.4597H14.4441H14.4285H14.413H14.3974H14.3818H14.3661H14.3505H14.3349H14.3192H14.3035H14.2878H14.2721H14.2564H14.2407H14.2249H14.2092H14.1934H14.1776H14.1618H14.146H14.1301H14.1143H14.0984H14.0825H14.0666H14.0507H14.0348H14.0188H14.0029H13.9869H13.9709H13.9548H13.9388H13.9228H13.9067H13.8906H13.8745H13.8584H13.8422H13.8261H13.8099H13.7937H13.7775H13.7612H13.745H13.7287H13.7124H13.6961H13.6798H13.6635H13.6471H13.6307H13.6143H13.5979H13.5814H13.565H13.5485H13.532H13.5154H13.4989H13.4823H13.4657H13.4491H13.4325H13.4158H13.3992H13.3825H13.3658H13.349H13.3323H13.3155H13.2987H13.2819H13.265H13.2481H13.2312H13.2143H13.1974H13.1804H13.1634H13.1464H13.1294H13.1123H13.0953H13.0782H13.061H13.0439H13.0267H13.0095H12.9923H12.975H12.9578H12.9405H12.9231H12.9058H12.8884H12.871H12.8536H12.8362H12.8187H12.8012H12.7837H12.7661H12.7485H12.7309H12.7133H12.6956H12.6779H12.6602H12.6425H12.6247H12.6069H12.5891H12.5713H12.5534H12.5355H12.5175H12.4996H12.4816H12.4636H12.4455H12.4275H12.4094H12.3912H12.3731H12.3549H12.3367H12.3184H12.3002H12.2818H12.2635H12.2451H12.2268H12.2083H12.1899H12.1714H12.1529H12.1343H12.1158H12.0971H12.0785H12.0598H12.0411H12.0224H12.0036H11.9848H11.966H11.9472H11.9283H11.9093H11.8904H11.8714H11.8524H11.8333H10.8333V16.9997H11.8333H11.8524H11.8714H11.8904H11.9093H11.9283H11.9472H11.966H11.9848H12.0036H12.0224H12.0411H12.0598H12.0785H12.0971H12.1158H12.1343H12.1529H12.1714H12.1899H12.2083H12.2268H12.2451H12.2635H12.2818H12.3002H12.3184H12.3367H12.3549H12.3731H12.3912H12.4094H12.4275H12.4455H12.4636H12.4816H12.4996H12.5175H12.5355H12.5534H12.5713H12.5891H12.6069H12.6247H12.6425H12.6602H12.6779H12.6956H12.7133H12.7309H12.7485H12.7661H12.7837H12.8012H12.8187H12.8362H12.8536H12.871H12.8884H12.9058H12.9231H12.9405H12.9578H12.975H12.9923H13.0095H13.0267H13.0439H13.061H13.0782H13.0953H13.1123H13.1294H13.1464H13.1634H13.1804H13.1974H13.2143H13.2312H13.2481H13.265H13.2819H13.2987H13.3155H13.3323H13.349H13.3658H13.3825H13.3992H13.4158H13.4325H13.4491H13.4657H13.4823H13.4989H13.5154H13.532H13.5485H13.565H13.5814H13.5979H13.6143H13.6307H13.6471H13.6635H13.6798H13.6961H13.7124H13.7287H13.745H13.7612H13.7775H13.7937H13.8099H13.8261H13.8422H13.8584H13.8745H13.8906H13.9067H13.9228H13.9388H13.9548H13.9709H13.9869H14.0029H14.0188H14.0348H14.0507H14.0666H14.0825H14.0984H14.1143H14.1301H14.146H14.1618H14.1776H14.1934H14.2092H14.2249H14.2407H14.2564H14.2721H14.2878H14.3035H14.3192H14.3349H14.3505H14.3661H14.3818H14.3974H14.413H14.4285H14.4441H14.4597H14.4752H14.4907H14.5062H14.5217H14.5372H14.5527H14.5682H14.5836H14.599H14.6145H14.6299H14.6453H14.6607H14.6761H14.6914H14.7068H14.7221H14.7375H14.7528H14.7681H14.7834H14.7987H14.814H14.8293H14.8445H14.8598H14.875H14.8903H14.9055H14.9207H14.9359H14.9511H14.9663H14.9815H14.9966H15V17.003V17.0182L15 17.0334V17.0486V17.0638V17.079V17.0942V17.1094V17.1246V17.1399V17.1551V17.1704V17.1857V17.201V17.2163V17.2316V17.2469V17.2622V17.2775V17.2929V17.3082V17.3236V17.339V17.3544V17.3698V17.3852V17.4006V17.4161V17.4315V17.447V17.4625V17.4779V17.4934V17.509V17.5245V17.54V17.5556V17.5711V17.5867V17.6023V17.6179V17.6335V17.6492V17.6648V17.6805V17.6961V17.7118V17.7275V17.7433V17.759V17.7747V17.7905V17.8063V17.8221V17.8379V17.8537V17.8695V17.8854V17.9013V17.9171V17.933V17.949V17.9649V17.9809V17.9968V18.0128V18.0288V18.0448V18.0609V18.0769V18.093V18.1091V18.1252V18.1413V18.1574V18.1736V18.1898V18.206V18.2222V18.2384V18.2547V18.2709V18.2872V18.3035V18.3199V18.3362V18.3526V18.369V18.3854V18.4018V18.4182V18.4347V18.4512V18.4677V18.4842V18.5008V18.5173V18.5339V18.5505V18.5672V18.5838V18.6005V18.6172V18.6339V18.6506V18.6674V18.6842V18.701V18.7178V18.7347V18.7515V18.7684V18.7853V18.8023V18.8192V18.8362V18.8532V18.8703V18.8873V18.9044V18.9215V18.9386V18.9558V18.973V18.9902V19.0074V19.0246V19.0419V19.0592V19.0765V19.0939V19.1113V19.1286V19.1461V19.1635V19.181V19.1985V19.216V19.2336V19.2512V19.2688V19.2864V19.3041V19.3217V19.3394V19.3572V19.375V19.3927V19.4106V19.4284V19.4463V19.4642V19.4821V19.5001V19.5181V19.5361V19.5541V19.5722V19.5903V19.6084V19.6266V19.6448V19.663V19.6812V19.6995V19.7178V19.7362V19.7545V19.7729V19.7913V19.8098V19.8283V19.8468V19.8653V19.8839V19.9025V19.9212V19.9398V19.9585V19.9773V19.996V20.0148V20.0337V20.0525V20.0714V20.0903V20.1093V20.1283V20.1473V20.1663V21.1663H17V20.1663V20.1473V20.1283V20.1093V20.0903V20.0714V20.0525V20.0337V20.0148V19.996V19.9773V19.9585V19.9398V19.9212V19.9025V19.8839V19.8653V19.8468V19.8283V19.8098V19.7913V19.7729V19.7545V19.7362V19.7178V19.6995V19.6812V19.663V19.6448V19.6266V19.6084V19.5903V19.5722V19.5541V19.5361V19.5181V19.5001V19.4821V19.4642V19.4463V19.4284V19.4106V19.3927V19.375V19.3572V19.3394V19.3217V19.3041V19.2864V19.2688V19.2512V19.2336V19.216V19.1985V19.181V19.1635V19.1461V19.1286V19.1113V19.0939V19.0765V19.0592V19.0419V19.0246V19.0074V18.9902V18.973V18.9558V18.9386V18.9215V18.9044V18.8873V18.8703V18.8532V18.8362V18.8192V18.8023V18.7853V18.7684V18.7515V18.7347V18.7178V18.701V18.6842V18.6674V18.6506V18.6339V18.6172V18.6005V18.5838V18.5672V18.5505V18.5339V18.5173V18.5008V18.4842V18.4677V18.4512V18.4347V18.4182V18.4018V18.3854V18.369V18.3526V18.3362V18.3199V18.3035V18.2872V18.2709V18.2547V18.2384V18.2222V18.206V18.1898V18.1736V18.1574V18.1413V18.1252V18.1091V18.093V18.0769V18.0609V18.0448V18.0288V18.0128V17.9968V17.9809V17.9649V17.949V17.933V17.9171V17.9013V17.8854V17.8695V17.8537V17.8379V17.8221V17.8063V17.7905V17.7747V17.759V17.7433V17.7275V17.7118V17.6961V17.6805V17.6648V17.6492V17.6335V17.6179V17.6023V17.5867V17.5711V17.5556V17.54V17.5245V17.509V17.4934V17.4779V17.4625V17.447V17.4315V17.4161V17.4006V17.3852V17.3698V17.3544V17.339V17.3236V17.3082V17.2929V17.2775V17.2622V17.2469V17.2316V17.2163V17.201V17.1857V17.1704V17.1551V17.1399V17.1246V17.1094V17.0942V17.079V17.0638V17.0486V17.0334L17 17.0182V17.003V16.9997H17.0034H17.0185H17.0337H17.0489H17.0641H17.0793H17.0945H17.1097H17.125H17.1402H17.1555H17.1707H17.186H17.2013H17.2166H17.2319H17.2472H17.2625H17.2779H17.2932H17.3086H17.3239H17.3393H17.3547H17.3701H17.3855H17.401H17.4164H17.4318H17.4473H17.4628H17.4783H17.4938H17.5093H17.5248H17.5403H17.5559H17.5715H17.587H17.6026H17.6182H17.6339H17.6495H17.6651H17.6808H17.6965H17.7122H17.7279H17.7436H17.7593H17.7751H17.7908H17.8066H17.8224H17.8382H17.854H17.8699H17.8857H17.9016H17.9175H17.9334H17.9493H17.9652H17.9812H17.9971H18.0131H18.0291H18.0452H18.0612H18.0772H18.0933H18.1094H18.1255H18.1416H18.1578H18.1739H18.1901H18.2063H18.2225H18.2388H18.255H18.2713H18.2876H18.3039H18.3202H18.3365H18.3529H18.3693H18.3857H18.4021H18.4186H18.435H18.4515H18.468H18.4846H18.5011H18.5177H18.5343H18.5509H18.5675H18.5842H18.6008H18.6175H18.6342H18.651H18.6677H18.6845H18.7013H18.7181H18.735H18.7519H18.7688H18.7857H18.8026H18.8196H18.8366H18.8536H18.8706H18.8877H18.9047H18.9218H18.939H18.9561H18.9733H18.9905H19.0077H19.025H19.0422H19.0595H19.0769H19.0942H19.1116H19.129H19.1464H19.1638H19.1813H19.1988H19.2164H19.2339H19.2515H19.2691H19.2867H19.3044H19.3221H19.3398H19.3575H19.3753H19.3931H19.4109H19.4287H19.4466H19.4645H19.4825H19.5004H19.5184H19.5364H19.5545H19.5725H19.5906H19.6088H19.6269H19.6451H19.6633H19.6816H19.6998H19.7182H19.7365H19.7549H19.7732H19.7917H19.8101H19.8286H19.8471H19.8657H19.8842H19.9029H19.9215H19.9402H19.9589H19.9776H19.9964H20.0152H20.034H20.0528H20.0717H20.0907H20.1096H20.1286H20.1476H20.1667H21.1667V14.9997H20.1667H20.1476H20.1286H20.1096H20.0907H20.0717H20.0528H20.034H20.0152H19.9964H19.9776H19.9589H19.9402H19.9215H19.9029H19.8842H19.8657H19.8471H19.8286H19.8101H19.7917H19.7732H19.7549H19.7365H19.7182H19.6998H19.6816H19.6633H19.6451H19.6269H19.6088H19.5906H19.5725H19.5545H19.5364H19.5184H19.5004H19.4825H19.4645H19.4466H19.4287H19.4109H19.3931H19.3753H19.3575H19.3398H19.3221H19.3044H19.2867H19.2691H19.2515H19.2339H19.2164H19.1988H19.1813H19.1638H19.1464H19.129H19.1116H19.0942H19.0769H19.0595H19.0422H19.025H19.0077H18.9905H18.9733H18.9561H18.939H18.9218H18.9047H18.8877H18.8706H18.8536H18.8366H18.8196H18.8026H18.7857H18.7688H18.7519H18.735H18.7181H18.7013H18.6845H18.6677H18.651H18.6342H18.6175H18.6008H18.5842H18.5675H18.5509H18.5343H18.5177H18.5011H18.4846H18.468H18.4515H18.435H18.4186H18.4021H18.3857H18.3693H18.3529H18.3365H18.3202H18.3039H18.2876H18.2713H18.255H18.2388H18.2225H18.2063H18.1901H18.1739H18.1578H18.1416H18.1255H18.1094H18.0933H18.0772H18.0612H18.0452H18.0291H18.0131H17.9971H17.9812H17.9652H17.9493H17.9334H17.9175H17.9016H17.8857H17.8699H17.854H17.8382H17.8224H17.8066H17.7908H17.7751H17.7593H17.7436H17.7279H17.7122H17.6965H17.6808H17.6651H17.6495H17.6339H17.6182H17.6026H17.587H17.5715H17.5559H17.5403H17.5248H17.5093H17.4938H17.4783H17.4628H17.4473H17.4318H17.4164H17.401H17.3855H17.3701H17.3547H17.3393H17.3239H17.3086H17.2932H17.2779H17.2625H17.2472H17.2319H17.2166H17.2013H17.186H17.1707H17.1555H17.1402H17.125H17.1097H17.0945H17.0793H17.0641H17.0489H17.0337H17.0185H17.0034H17V14.9963V14.9812V14.966V14.9508V14.9356V14.9204V14.9052V14.8899V14.8747V14.8595V14.8442V14.8289V14.8137V14.7984V14.7831V14.7678V14.7525V14.7371V14.7218V14.7065V14.6911V14.6757V14.6604V14.645V14.6296V14.6141V14.5987V14.5833V14.5678V14.5524V14.5369V14.5214V14.5059V14.4904V14.4749V14.4593V14.4438V14.4282V14.4126V14.397V14.3814V14.3658V14.3502V14.3345V14.3189V14.3032V14.2875V14.2718V14.2561V14.2404V14.2246V14.2089V14.1931V14.1773V14.1615V14.1457V14.1298V14.114V14.0981V14.0822V14.0663V14.0504V14.0344V14.0185V14.0025V13.9865V13.9705V13.9545V13.9385V13.9224V13.9064V13.8903V13.8742V13.858V13.8419V13.8257V13.8096V13.7934V13.7772V13.7609V13.7447V13.7284V13.7121V13.6958V13.6795V13.6631V13.6468V13.6304V13.614V13.5975V13.5811V13.5646V13.5481V13.5316V13.5151V13.4986V13.482V13.4654V13.4488V13.4322V13.4155V13.3988V13.3822V13.3654V13.3487V13.3319V13.3152V13.2984V13.2815V13.2647V13.2478V13.2309V13.214V13.1971V13.1801V13.1631V13.1461V13.1291V13.112V13.0949V13.0778V13.0607V13.0436V13.0264V13.0092V12.992V12.9747V12.9574V12.9401V12.9228V12.9055V12.8881V12.8707V12.8533V12.8358V12.8184V12.8009V12.7833V12.7658V12.7482V12.7306V12.713V12.6953V12.6776V12.6599V12.6422V12.6244V12.6066V12.5888V12.5709V12.5531V12.5352V12.5172V12.4993V12.4813V12.4633V12.4452V12.4271V12.409V12.3909V12.3728V12.3546V12.3364V12.3181V12.2998V12.2815V12.2632V12.2448V12.2264V12.208V12.1895V12.1711V12.1525V12.134V12.1154V12.0968V12.0782V12.0595V12.0408V12.0221V12.0033V11.9845V11.9657V11.9468V11.9279V11.909V11.8901V11.8711V11.8521V11.833Z" fill="#444444"/>
</svg>
